<?xml version="1.0" encoding="UTF-8" standalone="no"?>
<!-- Created with Inkscape (http://www.inkscape.org/) -->

<svg
   width="1024"
   height="1024"
   viewBox="0 0 270.93333 270.93333"
   version="1.1"
   id="svg1"
   xml:space="preserve"
   inkscape:version="1.3 (0e150ed6c4, 2023-07-21)"
   sodipodi:docname="Mathew Logo.svg"
   xmlns:inkscape="http://www.inkscape.org/namespaces/inkscape"
   xmlns:sodipodi="http://sodipodi.sourceforge.net/DTD/sodipodi-0.dtd"
   xmlns="http://www.w3.org/2000/svg"
   xmlns:svg="http://www.w3.org/2000/svg"><sodipodi:namedview
     id="namedview1"
     pagecolor="#ffffff"
     bordercolor="#000000"
     borderopacity="0.25"
     inkscape:showpageshadow="true"
     inkscape:pageopacity="0.0"
     inkscape:pagecheckerboard="0"
     inkscape:deskcolor="#d1d1d1"
     inkscape:document-units="mm"
     showgrid="false"
     inkscape:zoom="1"
     inkscape:cx="943"
     inkscape:cy="497.5"
     inkscape:window-width="1920"
     inkscape:window-height="1111"
     inkscape:window-x="-9"
     inkscape:window-y="-9"
     inkscape:window-maximized="1"
     inkscape:current-layer="svg1" /><defs
     id="defs1"><inkscape:path-effect
       effect="powerclip"
       id="path-effect67"
       is_visible="true"
       lpeversion="1"
       inverse="true"
       flatten="false"
       hide_clip="false"
       message="Use fill-rule evenodd on &lt;b&gt;fill and stroke&lt;/b&gt; dialog if no flatten result after convert clip to paths." /><clipPath
       clipPathUnits="userSpaceOnUse"
       id="clipPath44"><g
         inkscape:label="Clip"
         id="use44" /></clipPath><clipPath
       clipPathUnits="userSpaceOnUse"
       id="clipPath48"><g
         inkscape:label="Clip"
         id="use48"><path
           style="display:inline;opacity:1;mix-blend-mode:normal;fill:#0000ff;fill-opacity:1;stroke-width:0.264583"
           d="m 205.58125,93.133332 c -10.98021,33.205208 -16.11071,71.846738 -15.85277,94.032998 0.0845,0.34844 0.44548,0.17519 0.44548,0.17519 0.97259,-0.76752 1.72803,-1.33987 2.46221,-2.49808 0.1327,-0.20935 0.40436,-0.79733 0.51436,-1.04073 0.13229,-19.97604 1.45051,-55.08295 16.13488,-86.436075 0,0 0.0467,-0.347175 -0.0197,-0.500294 -0.55117,-1.271143 -1.65884,-2.981812 -3.01802,-3.762266 -0.19283,-0.11072 -0.53184,-0.157474 -0.66641,0.02926 -1e-5,8e-6 -3e-5,-3e-6 -3e-5,-3e-6 z"
           id="path48"
           sodipodi:nodetypes="cccsccsssc"
           inkscape:label="edge"
           inkscape:highlight-color="#076eff" /></g></clipPath><clipPath
       clipPathUnits="userSpaceOnUse"
       id="clipPath66"><g
         id="g67"
         inkscape:label="Features"
         transform="translate(1.2628485,1.683798)"
         style="display:none;fill:#000000;fill-opacity:1"><path
           style="opacity:1;fill:#0000ff;fill-opacity:1;stroke-width:0.2565"
           d="m 206.26204,87.989707 c -7.66856,17.741923 -15.573,80.906143 -18.33944,102.200463 0.0653,1.22804 0.37426,1.88952 0.80956,2.37365 0.53596,0.34119 1.18874,0.46062 2.24085,0.19397 0.39177,-0.64945 0.44916,-1.77585 0.43828,-2.36625 0.41213,-23.22238 6.4179,-69.78894 17.59575,-100.496821 0.077,-0.384082 0.13852,-0.63457 -0.0923,-1.302539 -0.21546,-0.784862 -0.31337,-0.936457 -1.3445,-1.136847 -0.3232,0.08349 -0.89263,0.333984 -1.30816,0.534374 z"
           id="path66"
           inkscape:label="right long"
           sodipodi:nodetypes="cccccccccc" /><path
           style="opacity:1;fill:#0000ff;fill-opacity:1;stroke-width:0.238356"
           d="m 189.03789,196.64685 c -0.66451,0.41209 -0.82755,1.63557 -0.83016,2.55264 -0.006,2.07501 3.3e-4,2.56927 0.53737,3.57657 0.32656,0.6125 0.81984,1.01362 1.35397,1.069 0.49906,0.0517 1.05739,-0.25511 1.38271,-0.72429 0.31001,-0.4471 0.3281,-1.12384 0.34759,-1.71142 0.0275,-0.82897 -0.10423,-1.67364 -0.32885,-2.45577 -0.18412,-0.64112 -0.38047,-1.35929 -0.81798,-1.77389 -0.44932,-0.42581 -1.13831,-0.84684 -1.64465,-0.53284 z"
           id="path67"
           sodipodi:nodetypes="assaaaaaa"
           inkscape:label="right bottom dot" /></g><path
         id="lpe_path-effect67"
         style="display:inline;fill:#000000;fill-opacity:1"
         class="powerclip"
         d="M 54.02242,28.878432 H 219.43199 V 233.10047 H 54.02242 Z m 152.23962,59.111275 c -7.66856,17.741923 -15.573,80.906143 -18.33944,102.200463 0.0653,1.22804 0.37426,1.88952 0.80956,2.37365 0.53596,0.34119 1.18874,0.46062 2.24085,0.19397 0.39177,-0.64945 0.44916,-1.77585 0.43828,-2.36625 0.41213,-23.22238 6.4179,-69.78894 17.59575,-100.496821 0.077,-0.384082 0.13852,-0.63457 -0.0923,-1.302539 -0.21546,-0.784862 -0.31337,-0.936457 -1.3445,-1.136847 -0.3232,0.08349 -0.89263,0.333984 -1.30816,0.534374 z M 189.03789,196.64685 c -0.66451,0.41209 -0.82755,1.63557 -0.83016,2.55264 -0.006,2.07501 3.3e-4,2.56927 0.53737,3.57657 0.32656,0.6125 0.81984,1.01362 1.35397,1.069 0.49906,0.0517 1.05739,-0.25511 1.38271,-0.72429 0.31001,-0.4471 0.3281,-1.12384 0.34759,-1.71142 0.0275,-0.82897 -0.10423,-1.67364 -0.32885,-2.45577 -0.18412,-0.64112 -0.38047,-1.35929 -0.81798,-1.77389 -0.44932,-0.42581 -1.13831,-0.84684 -1.64465,-0.53284 z" /></clipPath></defs><g
     inkscape:groupmode="layer"
     id="layer2"
     inkscape:label="Drawing"
     style="display:inline;fill:#000000;fill-opacity:1"
     inkscape:highlight-color="#242dff"><g
       id="g49"
       inkscape:label="Main Line"
       style="display:inline;fill:#000000;fill-opacity:1;mix-blend-mode:normal"
       clip-path="url(#clipPath66)"
       inkscape:path-effect="#path-effect67"><path
         style="display:inline;opacity:1;fill:#000000;fill-opacity:1;stroke-width:0.264583"
         d="m 61.038202,224.01143 c 2.517672,1.93431 8.122363,-0.24991 9.717147,-1.9058 7.820012,-15.66292 11.688949,-22.4855 23.810877,-35.30663 2.2404,-3.70451 3.879803,-6.62513 6.263474,-19.03606 3.3007,-17.18559 6.72719,-32.77143 12.16853,-50.72933 3.79118,-12.51194 7.71391,-20.040142 12.63976,-32.538072 3.56967,-9.056996 6.87754,-22.474829 6.87754,-22.474829 0.18422,-7.921457 0.92803,-7.246572 -1.96501,-12.035703 -2.89304,-4.789131 -12.80328,-10.684754 -17.07104,-12.86469 -2.27897,-1.195905 -11.65278,-5.572964 -14.491974,-1.627277 -8.451371,11.745038 -27.911835,82.229611 -31.82354,97.593141 -2.609399,10.24862 -6.68842,43.47766 -7.44819,49.4714 -0.390789,3.08289 -0.715442,10.30233 -0.692179,18.11188 0.04056,13.61762 1.330404,22.66018 2.014605,23.34197 z"
         id="path2"
         sodipodi:nodetypes="cccssscccssssc"
         inkscape:label="left leg"
         inkscape:original-d="m 61.038202,224.01143 c 2.517672,1.93431 8.122363,-0.24991 9.717147,-1.9058 7.820012,-15.66292 11.688949,-22.4855 23.810877,-35.30663 2.2404,-3.70451 3.879803,-6.62513 6.263474,-19.03606 3.3007,-17.18559 6.72719,-32.77143 12.16853,-50.72933 3.79118,-12.51194 7.71391,-20.040142 12.63976,-32.538072 3.56967,-9.056996 6.87754,-22.474829 6.87754,-22.474829 0.18422,-7.921457 0.92803,-7.246572 -1.96501,-12.035703 -2.89304,-4.789131 -12.80328,-10.684754 -17.07104,-12.86469 -2.27897,-1.195905 -11.65278,-5.572964 -14.491974,-1.627277 -8.451371,11.745038 -27.911835,82.229611 -31.82354,97.593141 -2.609399,10.24862 -6.68842,43.47766 -7.44819,49.4714 -0.390789,3.08289 -0.715442,10.30233 -0.692179,18.11188 0.04056,13.61762 1.330404,22.66018 2.014605,23.34197 z" /><path
         style="display:inline;opacity:1;mix-blend-mode:normal;fill:#000000;fill-opacity:1;stroke-width:0.264583"
         d="m 166.96466,139.82292 c -4.54409,15.90432 -6.01785,47.89718 -5.46519,62.45055 1.78079,16.88683 2.48606,17.34978 7.03105,24.10211 1.38165,2.67119 4.63621,1.44306 4.63621,1.44306 0.79829,-0.12281 5.09675,-1.90361 6.38629,-3.07034 1.75151,-1.5847 15.7815,-11.91288 16.45698,-17.19385 0.0473,-50.36842 6.54975,-78.88228 18.42199,-118.637634 0,0 -4.91898,-9.069172 -9.33381,-10.930382 -5.14149,-2.167557 -13.20576,-1.368859 -16.70261,1.105321 -10.42105,19.105263 -15.69023,40.638765 -21.43091,60.731165 z"
         id="path3"
         sodipodi:nodetypes="scccsccscs"
         inkscape:label="right leg"
         inkscape:original-d="m 166.96466,139.82292 c -4.54409,15.90432 -6.01785,47.89718 -5.46519,62.45055 1.78079,16.88683 2.48606,17.34978 7.03105,24.10211 1.38165,2.67119 4.63621,1.44306 4.63621,1.44306 0.79829,-0.12281 5.09675,-1.90361 6.38629,-3.07034 1.75151,-1.5847 15.7815,-11.91288 16.45698,-17.19385 0.0473,-50.36842 6.54975,-78.88228 18.42199,-118.637634 0,0 -4.91898,-9.069172 -9.33381,-10.930382 -5.14149,-2.167557 -13.20576,-1.368859 -16.70261,1.105321 -10.42105,19.105263 -15.69023,40.638765 -21.43091,60.731165 z" /><path
         style="display:inline;opacity:1;fill:#000000;fill-opacity:1;stroke-width:0.264583"
         d="m 111.95612,117.03361 c 2.21064,23.1503 13.49764,35.5619 18.84002,36.97425 20.81685,1.35095 36.16852,-14.18494 36.16852,-14.18494 22.46579,-33.86479 20.71553,-47.615837 21.43091,-60.731165 0,0 -30.53175,55.887005 -42.8335,62.030185 -1.80303,0.90039 -3.19318,1.79647 -4.44961,-1.36043 -0.99219,-17.99167 -5.5266,-40.774004 -5.5266,-40.774004 -0.66771,-4.926237 -6.38628,-9.026778 -9.39521,-9.947878 -3.99641,-1.638079 -5.95581,-0.451578 -7.53953,0.402381 -9.18857,4.954568 -9.02629,17.646491 -6.695,27.591601 z"
         id="path4"
         sodipodi:nodetypes="ccccscscsc"
         inkscape:label="middle"
         inkscape:original-d="m 111.95612,117.03361 c 2.21064,23.1503 13.49764,35.5619 18.84002,36.97425 20.81685,1.35095 36.16852,-14.18494 36.16852,-14.18494 22.46579,-33.86479 20.71553,-47.615837 21.43091,-60.731165 0,0 -30.53175,55.887005 -42.8335,62.030185 -1.80303,0.90039 -3.19318,1.79647 -4.44961,-1.36043 -0.99219,-17.99167 -5.5266,-40.774004 -5.5266,-40.774004 -0.66771,-4.926237 -6.38628,-9.026778 -9.39521,-9.947878 -3.99641,-1.638079 -5.95581,-0.451578 -7.53953,0.402381 -9.18857,4.954568 -9.02629,17.646491 -6.695,27.591601 z" /></g></g></svg>
